<?xml version="1.0" encoding="utf-8"?>
<!-- Generator: Adobe Illustrator 22.0.0, SVG Export Plug-In . SVG Version: 6.00 Build 0)  -->
<svg version="1.1" id="Warstwa_1" xmlns="http://www.w3.org/2000/svg" xmlns:xlink="http://www.w3.org/1999/xlink" x="0px" y="0px"
	 viewBox="0 0 134 134" style="enable-background:new 0 0 134 134;" xml:space="preserve">
<style type="text/css">
	.st0{fill:#388FEE;}
</style>
<path class="st0" d="M113.2,90.1c-2.1,0-3.8,1.7-3.8,3.8v15.4H24.7V93.9c0-2.1-1.7-3.8-3.8-3.8c-2.1,0-3.8,1.7-3.8,3.8v19.2
	c0,2.1,1.7,3.8,3.8,3.8h92.3c2.1,0,3.8-1.7,3.8-3.8V93.9C117,91.8,115.3,90.1,113.2,90.1L113.2,90.1z M32.8,69.2L64,100.4
	c0.8,0.8,1.8,1.1,2.8,1.1c0.1,0,0.2,0.1,0.4,0.1c0.6,0,1.1-0.1,1.6-0.3c0.5-0.2,0.9-0.5,1.3-0.9l31.2-31.1c1.5-1.5,1.5-3.9,0-5.4
	c-0.8-0.8-1.7-1.1-2.7-1.1c-1,0-2,0.4-2.7,1.1L70.9,88.6V20.8c0-2.1-1.7-3.8-3.8-3.8c-2.1,0-3.8,1.7-3.8,3.8v67.9l-25-25
	c-0.8-0.8-1.7-1.1-2.7-1.1c-1,0-2,0.4-2.7,1.1C31.3,65.3,31.3,67.7,32.8,69.2L32.8,69.2z"/>
</svg>
