<?xml version="1.0" encoding="utf-8"?>
<!-- Generator: Adobe Illustrator 22.0.0, SVG Export Plug-In . SVG Version: 6.00 Build 0)  -->
<svg version="1.1" id="Warstwa_1" xmlns="http://www.w3.org/2000/svg" xmlns:xlink="http://www.w3.org/1999/xlink" x="0px" y="0px"
	 viewBox="0 0 400 400" style="enable-background:new 0 0 400 400;" xml:space="preserve">
<style type="text/css">
	.st0{fill:none;stroke:#FFFFFF;stroke-width:12;stroke-linecap:round;stroke-miterlimit:10;}
</style>
<g id="others">
	<g>
		<g>
			<path class="st0" d="M91.8,345.3V73.9c0-11,9-20,20-20h139.8c11,0,20,9,20,20v271.4"/>
			<line class="st0" x1="61" y1="346.1" x2="299.9" y2="346.1"/>
		</g>
		<path class="st0" d="M225.5,169.6h-89.9c-11,0-20-9-20-20v-24.3V101c0-11,9-20,20-20h89.9c11,0,20,9,20,20v48.6
			C245.5,160.6,236.5,169.6,225.5,169.6z"/>
		<path class="st0" d="M302.7,71.7l36.1,48.8c0,0,0.1,23,0.2,52.2c0.1,41.4,0.2,95.3-0.2,113.2c-0.6,30.5-45,26.6-45,0
			s0-63.3,0-86.8s-22.2-18-22.2-18"/>
		<path class="st0" d="M338.9,172.7c-28.7,2.2-26.8-19.4-26.8-19.4c-1.1-35,26.7-27.9,26.7-27.9"/>
		<line class="st0" x1="194.5" y1="105" x2="181.7" y2="169.6"/>
	</g>
</g>
<g id="desktop_2">
</g>
<g id="desktop">
</g>
<g id="winkPark_new">
</g>
<g id="Mobile">
</g>
<g id="tablet">
</g>
</svg>
