<?xml version="1.0" encoding="utf-8"?>
<!-- Generator: Adobe Illustrator 22.0.0, SVG Export Plug-In . SVG Version: 6.00 Build 0)  -->
<svg version="1.1" id="Warstwa_1" xmlns="http://www.w3.org/2000/svg" xmlns:xlink="http://www.w3.org/1999/xlink" x="0px" y="0px"
	 viewBox="0 0 300 300" style="enable-background:new 0 0 300 300;" xml:space="preserve">
<style type="text/css">
	.st0{fill:#3AAAE1;}
</style>
<path class="st0" d="M292,61.5c-10.4,4.7-21.7,7.8-33.5,9.2c12-7.2,21.3-18.7,25.6-32.4c-11.3,6.7-23.7,11.6-37,14.2
	c-10.6-11.4-25.8-18.5-42.5-18.5c-32.2,0-58.3,26.2-58.3,58.5c0,4.6,0.5,9.1,1.5,13.3c-48.4-2.4-91.4-25.7-120.1-61.1
	c-5,8.6-7.9,18.7-7.9,29.4c0,20.3,10.3,38.2,25.9,48.7c-9.6-0.3-18.5-2.9-26.4-7.3c0,0.2,0,0.5,0,0.7c0,28.3,20.1,52,46.7,57.4
	c-4.9,1.3-10,2.1-15.4,2.1c-3.8,0-7.4-0.4-11-1c7.4,23.2,28.9,40.2,54.4,40.6c-19.9,15.7-45.1,25-72.4,25c-4.7,0-9.3-0.3-13.9-0.8
	c25.8,16.6,56.4,26.3,89.3,26.3c107.2,0,165.8-89.2,165.8-166.5c0-2.5-0.1-5.1-0.2-7.6C274.3,83.6,284.2,73.3,292,61.5L292,61.5z"/>
</svg>
