<?xml version="1.0" encoding="utf-8"?>
<!-- Generator: Adobe Illustrator 22.0.0, SVG Export Plug-In . SVG Version: 6.00 Build 0)  -->
<svg version="1.1" id="Warstwa_1" xmlns="http://www.w3.org/2000/svg" xmlns:xlink="http://www.w3.org/1999/xlink" x="0px" y="0px"
	 viewBox="0 0 300 71" style="enable-background:new 0 0 300 71;" xml:space="preserve">
<style type="text/css">
	.st0{clip-path:url(#SVGID_2_);}
	.st1{clip-path:url(#SVGID_4_);fill:#FFFFFF;}
	.st2{clip-path:url(#SVGID_4_);fill:#3BBAF2;}
	.st3{clip-path:url(#SVGID_4_);fill:#00CC33;}
	.st4{clip-path:url(#SVGID_4_);fill:#666666;}
</style>
<g>
	<g>
		<defs>
			<rect id="SVGID_1_" x="-31.1" y="-36.3" width="365.8" height="146.3"/>
		</defs>
		<clipPath id="SVGID_2_">
			<use xlink:href="#SVGID_1_"  style="overflow:visible;"/>
		</clipPath>
		<g class="st0">
			<defs>
				<rect id="SVGID_3_" x="-31.1" y="-36.3" width="365.8" height="146.3"/>
			</defs>
			<clipPath id="SVGID_4_">
				<use xlink:href="#SVGID_3_"  style="overflow:visible;"/>
			</clipPath>
			<path class="st1" d="M83.3,59.9c-2,0-3.7-1.6-3.7-3.7v-2.1H39.8v2.1c0,2-1.6,3.7-3.7,3.7h-3.1c-2,0-3.7-1.6-3.7-3.7v-4.7
				c-1.8-1.7-2.8-4.1-2.8-6.6l-0.5-8.8c0-4.6,3.4-8.5,7.8-9.2c0.9-10.1,8.7-18,17.9-18h15.8c9.2,0,17,7.8,17.9,18
				c4.4,0.7,7.8,4.6,7.8,9.1L92.8,45c0,2.4-1,4.8-2.8,6.5v4.7c0,2-1.6,3.7-3.7,3.7H83.3z M79.9,26.8c-0.9-6.9-6.2-12.3-12.3-12.3
				H51.9c-6.1,0-11.4,5.3-12.3,12.3H79.9z"/>
			<path class="st2" d="M67.6,9.7c9.1,0,16.6,7.9,17.2,17.9c4.4,0.4,7.8,4,7.8,8.4l-0.5,8.9c0,2.5-1.1,4.7-2.8,6.3v5
				c0,1.6-1.3,2.9-2.9,2.9h-3.1c-1.6,0-2.9-1.3-2.9-2.9v-2.8H39.1v2.8c0,1.6-1.3,2.9-2.9,2.9h-3.1c-1.6,0-2.9-1.3-2.9-2.9v-5
				c-1.7-1.5-2.8-3.8-2.8-6.3L26.9,36c0-4.4,3.4-8.1,7.8-8.4c0.6-10,8.1-17.9,17.2-17.9H67.6 M38.8,27.6h42
				c-0.6-7.7-6.3-13.8-13.1-13.8H51.9C45,13.8,39.4,19.9,38.8,27.6 M67.6,8.2H51.9c-9.4,0-17.4,7.8-18.6,18.1c-4.5,1-7.9,5-7.9,9.7
				v0l0,0l0.5,8.8c0,2.6,1,5,2.8,6.8v4.4c0,2.4,2,4.4,4.4,4.4h3.1c2.4,0,4.4-2,4.4-4.4v-1.3h38.3v1.3c0,2.4,2,4.4,4.4,4.4h3.1
				c2.4,0,4.4-2,4.4-4.4v-4.4c1.8-1.8,2.8-4.3,2.8-6.8l0.5-8.8l0,0v0c0-4.7-3.4-8.8-7.9-9.7C85,16.1,77.1,8.2,67.6,8.2 M40.5,26.1
				c1.2-6.2,5.9-10.8,11.4-10.8h15.8c5.5,0,10.3,4.6,11.4,10.8H40.5z"/>
			<path class="st2" d="M78.4,35.3c0,1.8,1.5,3.3,3.3,3.3H84c1.8,0,3.3-1.5,3.3-3.3v-0.1c0-1.8-1.5-3.3-3.3-3.3h-2.4
				C79.9,31.9,78.4,33.3,78.4,35.3L78.4,35.3z"/>
			<path class="st3" d="M33,34.4c0,0.9,0.7,1.6,1.6,1.6h6.2c0.9,0,1.6-0.7,1.6-1.6c0-0.9-0.7-1.6-1.6-1.6h-6.2
				C33.7,32.8,33,33.5,33,34.4"/>
			<path class="st3" d="M59.7,48.3c6.7,0,11.9-3.8,11.9-8.6c0-1.2-1-2.2-2.2-2.2c-1.2,0-2.2,1-2.2,2.2c0,2-3.1,4.3-7.5,4.3
				c-4.4,0-7.5-2.3-7.5-4.3c0-1.2-1-2.2-2.2-2.2c-1.2,0-2.2,1-2.2,2.2C47.8,44.5,53,48.3,59.7,48.3"/>
			<path class="st3" d="M130.4,31.6c0.3,0.3,0.4,0.7,0.4,1.1c0,0.4-0.1,0.8-0.2,1.1L125,50.5c-0.1,0.4-0.4,0.6-0.7,0.9
				c-0.3,0.2-0.7,0.4-1.1,0.4c-0.4,0-0.8-0.1-1.1-0.4c-0.3-0.2-0.6-0.5-0.7-0.9l-3.7-13.7l-3.9,13.7c-0.1,0.4-0.4,0.6-0.7,0.9
				c-0.3,0.2-0.7,0.4-1.1,0.4c-0.4,0-0.8-0.1-1.1-0.4c-0.3-0.2-0.6-0.5-0.7-0.9l-5.6-16.7c-0.1-0.3-0.2-0.7-0.2-1.1
				c0-1.1,0.5-1.6,1.6-1.6c0.5,0,0.9,0.1,1.2,0.4c0.3,0.3,0.6,0.7,0.8,1.3l4.1,12.7l3.8-13c0.1-0.4,0.3-0.8,0.7-1
				c0.3-0.3,0.7-0.4,1.2-0.4c0.5,0,0.9,0.1,1.2,0.4c0.3,0.3,0.5,0.6,0.7,1l3.4,13.3l4.1-13c0.4-1.2,1-1.7,2-1.7
				C129.7,31.1,130.1,31.3,130.4,31.6"/>
			<path class="st3" d="M138.9,23.5c0.5,0.5,0.7,1.1,0.7,1.8c0,0.7-0.2,1.3-0.7,1.8c-0.5,0.5-1.1,0.7-1.8,0.7s-1.3-0.2-1.8-0.7
				c-0.5-0.5-0.7-1.1-0.7-1.8c0-0.7,0.2-1.3,0.7-1.8c0.5-0.5,1.1-0.7,1.8-0.7S138.4,23.1,138.9,23.5 M135.7,31.7
				c0.4-0.4,0.8-0.5,1.4-0.5c0.6,0,1,0.2,1.4,0.5c0.4,0.4,0.5,0.8,0.5,1.4v16.8c0,0.6-0.2,1-0.5,1.4c-0.4,0.4-0.8,0.5-1.4,0.5
				c-0.6,0-1-0.2-1.4-0.5c-0.4-0.4-0.5-0.8-0.5-1.4V33.1C135.2,32.5,135.4,32,135.7,31.7"/>
			<path class="st3" d="M159.1,32.1c1.4,0.8,2.5,1.9,3.2,3.3c0.8,1.4,1.2,3.2,1.2,5.2v9.3c0,0.6-0.2,1-0.5,1.4
				c-0.4,0.4-0.8,0.5-1.4,0.5c-0.6,0-1-0.2-1.4-0.5c-0.4-0.4-0.5-0.8-0.5-1.4v-9.3c0-2-0.5-3.6-1.6-4.6c-1.1-1-2.5-1.6-4.4-1.6
				c-1.1,0-2,0.2-2.9,0.6c-0.9,0.4-1.5,1-2,1.7c-0.5,0.7-0.7,1.5-0.7,2.5v10.6c0,0.6-0.2,1-0.5,1.4c-0.4,0.4-0.8,0.5-1.4,0.5
				c-0.6,0-1-0.2-1.4-0.5c-0.4-0.4-0.5-0.8-0.5-1.4V33.1c0-0.6,0.2-1,0.5-1.4c0.4-0.4,0.8-0.5,1.4-0.5c0.6,0,1,0.2,1.4,0.5
				c0.4,0.4,0.5,0.8,0.5,1.4v0.4c0.8-0.8,1.8-1.4,2.9-1.9c1.1-0.4,2.3-0.7,3.5-0.7C156.2,31,157.8,31.3,159.1,32.1"/>
			<path class="st3" d="M184.4,50.2c0,0.6-0.2,1-0.7,1.4c-0.4,0.3-0.8,0.5-1.2,0.5c-0.6,0-1-0.2-1.4-0.7l-7.2-8.9l-1.9,1.7v5.8
				c0,0.6-0.2,1-0.5,1.3c-0.3,0.3-0.8,0.5-1.3,0.5c-0.6,0-1-0.2-1.3-0.5c-0.3-0.3-0.5-0.8-0.5-1.3V24.2c0-0.6,0.2-1,0.5-1.3
				c0.3-0.3,0.8-0.5,1.3-0.5c0.6,0,1,0.2,1.3,0.5c0.3,0.3,0.5,0.8,0.5,1.3v15.3l9.2-8.2c0.3-0.3,0.7-0.5,1.2-0.5
				c0.5,0,1,0.2,1.3,0.6c0.3,0.3,0.5,0.7,0.5,1.2c0,0.5-0.2,1-0.6,1.3l-6.9,6.2l7.3,9C184.3,49.4,184.4,49.7,184.4,50.2"/>
			<path class="st2" d="M192.7,51.2c-0.4,0.4-0.8,0.6-1.4,0.6c-0.6,0-1-0.2-1.4-0.6c-0.4-0.4-0.6-0.8-0.6-1.4V24.3
				c0-0.6,0.2-1,0.6-1.4c0.4-0.4,0.8-0.5,1.4-0.5h7.5c1.9,0,3.5,0.4,5,1.2c1.5,0.8,2.6,2,3.4,3.5c0.8,1.5,1.2,3.2,1.2,5.1
				c0,1.8-0.4,3.5-1.2,4.9c-0.8,1.4-2,2.6-3.4,3.4c-1.5,0.8-3.1,1.2-5,1.2h-5.6v8.3C193.3,50.4,193.1,50.8,192.7,51.2 M203.1,36.3
				c1.1-1.1,1.7-2.5,1.7-4.2c0-1.8-0.6-3.3-1.7-4.4c-1.1-1.2-2.5-1.7-4.2-1.7h-5.6v12h5.6C200.6,37.9,202,37.4,203.1,36.3"/>
			<path class="st2" d="M225.4,32.4c1.6,0.9,2.8,2.2,3.7,3.8c0.9,1.6,1.4,3.4,1.4,5.3v8.4c0,0.6-0.2,1-0.5,1.4
				c-0.4,0.4-0.8,0.5-1.4,0.5c-0.6,0-1-0.2-1.4-0.5c-0.4-0.4-0.5-0.8-0.5-1.4v-1.4c-0.9,1.1-1.9,1.9-3.2,2.5
				c-1.3,0.6-2.6,0.9-4.1,0.9c-1.8,0-3.4-0.5-4.9-1.4c-1.5-0.9-2.6-2.2-3.5-3.8c-0.8-1.6-1.3-3.4-1.3-5.3c0-2,0.5-3.7,1.4-5.3
				c0.9-1.6,2.2-2.9,3.8-3.8c1.6-0.9,3.4-1.4,5.3-1.4C222,31,223.8,31.5,225.4,32.4 M223.5,47.6c1-0.6,1.8-1.5,2.4-2.5
				c0.6-1.1,0.9-2.3,0.9-3.6c0-1.3-0.3-2.5-0.9-3.6c-0.6-1.1-1.4-1.9-2.4-2.5c-1-0.6-2.2-0.9-3.4-0.9c-1.3,0-2.4,0.3-3.4,0.9
				c-1,0.6-1.8,1.5-2.4,2.5c-0.6,1.1-0.9,2.3-0.9,3.6c0,1.3,0.3,2.5,0.9,3.6c0.6,1.1,1.4,1.9,2.4,2.5c1,0.6,2.2,0.9,3.4,0.9
				C221.4,48.5,222.5,48.2,223.5,47.6"/>
			<path class="st2" d="M248,31.5c0.8,0.4,1.1,0.9,1.1,1.5c0,0.2,0,0.3,0,0.4c-0.2,0.8-0.7,1.2-1.5,1.2c-0.1,0-0.3,0-0.6-0.1
				c-1-0.2-1.8-0.3-2.5-0.3c-1.8,0-3.3,0.4-4.4,1.2c-1.1,0.8-1.7,1.9-1.7,3.4v11c0,0.6-0.2,1.1-0.5,1.4c-0.3,0.3-0.8,0.5-1.4,0.5
				c-0.6,0-1.1-0.2-1.4-0.5c-0.3-0.3-0.5-0.8-0.5-1.4V33c0-0.6,0.2-1.1,0.5-1.4c0.3-0.3,0.8-0.5,1.4-0.5c1.3,0,1.9,0.6,1.9,1.9v0.7
				c0.8-0.9,1.7-1.6,2.8-2.1c1.1-0.5,2.3-0.8,3.5-0.8C246.2,30.9,247.2,31.1,248,31.5"/>
			<path class="st2" d="M268.6,50.2c0,0.6-0.2,1-0.7,1.4c-0.4,0.3-0.8,0.5-1.2,0.5c-0.6,0-1-0.2-1.4-0.7l-7.2-8.9l-1.9,1.7v5.8
				c0,0.6-0.2,1-0.5,1.3c-0.3,0.3-0.8,0.5-1.3,0.5c-0.6,0-1-0.2-1.3-0.5c-0.3-0.3-0.5-0.8-0.5-1.3V24.2c0-0.6,0.2-1,0.5-1.3
				c0.3-0.3,0.8-0.5,1.3-0.5c0.6,0,1,0.2,1.3,0.5c0.3,0.3,0.5,0.8,0.5,1.3v15.3l9.2-8.2c0.3-0.3,0.7-0.5,1.2-0.5
				c0.5,0,1,0.2,1.3,0.6c0.3,0.3,0.5,0.7,0.5,1.2c0,0.5-0.2,1-0.6,1.3l-6.9,6.2l7.3,9C268.5,49.4,268.6,49.7,268.6,50.2"/>
			<path class="st4" d="M242.7,56.6c0.3,0.2,0.6,0.4,0.8,0.7c0.2,0.3,0.3,0.6,0.3,1c0,0.3-0.1,0.6-0.2,0.8c-0.2,0.2-0.4,0.4-0.7,0.6
				c0.4,0.1,0.8,0.3,1,0.6c0.2,0.3,0.4,0.7,0.4,1.1c0,0.4-0.1,0.8-0.3,1.1c-0.2,0.3-0.5,0.6-0.9,0.8c-0.4,0.2-0.8,0.3-1.2,0.3h-2.5
				c-0.1,0-0.3,0-0.3-0.1c-0.1-0.1-0.1-0.2-0.1-0.3v-6.4c0-0.1,0-0.3,0.1-0.4c0.1-0.1,0.2-0.1,0.3-0.1h2.3
				C242,56.3,242.4,56.4,242.7,56.6 M242.5,59.1c0.2-0.2,0.3-0.4,0.3-0.8c0-0.3-0.1-0.6-0.3-0.8c-0.2-0.2-0.5-0.3-0.9-0.3h-1.8v2.1
				h1.8C241.9,59.3,242.2,59.3,242.5,59.1 M242.8,62.4c0.3-0.2,0.4-0.6,0.4-1c0-0.4-0.1-0.7-0.4-0.9c-0.3-0.2-0.6-0.3-1.1-0.3h-2
				v2.5h2C242.2,62.8,242.6,62.7,242.8,62.4"/>
			<path class="st4" d="M252.6,62.9c0.1,0.1,0.1,0.2,0.1,0.3c0,0.1,0,0.2-0.1,0.3c-0.1,0.1-0.2,0.1-0.3,0.1H248
				c-0.1,0-0.3,0-0.3-0.1s-0.1-0.2-0.1-0.3v-6.4c0-0.1,0-0.3,0.1-0.4c0.1-0.1,0.2-0.1,0.3-0.1h4.3c0.1,0,0.3,0,0.3,0.1
				c0.1,0.1,0.1,0.2,0.1,0.3c0,0.1,0,0.2-0.1,0.3c-0.1,0.1-0.2,0.1-0.3,0.1h-3.8v2.3h2.7c0.1,0,0.3,0,0.3,0.1
				c0.1,0.1,0.1,0.2,0.1,0.3c0,0.1,0,0.2-0.1,0.3c-0.1,0.1-0.2,0.1-0.3,0.1h-2.7v2.4h3.8C252.4,62.8,252.5,62.8,252.6,62.9"/>
			<path class="st4" d="M261,56.4c0.1,0.1,0.1,0.2,0.1,0.3s0,0.2-0.1,0.3c-0.1,0.1-0.2,0.1-0.3,0.1h-2v6c0,0.1,0,0.3-0.1,0.3
				c-0.1,0.1-0.2,0.1-0.3,0.1c-0.1,0-0.3,0-0.3-0.1c-0.1-0.1-0.1-0.2-0.1-0.3v-6h-2c-0.1,0-0.2,0-0.3-0.1c-0.1-0.1-0.1-0.2-0.1-0.3
				s0-0.2,0.1-0.3c0.1-0.1,0.2-0.1,0.3-0.1h5C260.8,56.3,260.9,56.4,261,56.4"/>
			<path class="st4" d="M268.9,63.2c0,0.1,0,0.2-0.1,0.3c-0.1,0.1-0.2,0.1-0.3,0.1c-0.1,0-0.2,0-0.3-0.1c-0.1-0.1-0.1-0.1-0.2-0.2
				l-0.5-1.3h-3.4l-0.5,1.3c0,0.1-0.1,0.2-0.2,0.2c-0.1,0.1-0.2,0.1-0.3,0.1c-0.1,0-0.3,0-0.3-0.1c-0.1-0.1-0.1-0.2-0.1-0.3
				c0-0.1,0-0.1,0-0.2l2.6-6.3c0.1-0.2,0.2-0.3,0.5-0.3c0.2,0,0.4,0.1,0.5,0.3l2.7,6.3C268.9,63.1,268.9,63.1,268.9,63.2
				 M267.1,61.2l-1.3-3.4l-1.4,3.4H267.1z"/>
		</g>
	</g>
</g>
</svg>
